<?xml version="1.0" standalone="no"?><!DOCTYPE svg PUBLIC "-//W3C//DTD SVG 1.1//EN" "http://www.w3.org/Graphics/SVG/1.1/DTD/svg11.dtd"><svg t="1590546101301" class="icon" viewBox="0 0 1024 1024" version="1.1" xmlns="http://www.w3.org/2000/svg" p-id="1038" xmlns:xlink="http://www.w3.org/1999/xlink" width="200" height="200"><defs><style type="text/css"></style></defs><path d="M659.5 478.2c18.6 0 33.8 15.1 33.8 33.8 0 18.6-15.1 33.7-33.8 33.7-18.7 0-33.8-15.1-33.8-33.7 0-18.7 15.1-33.8 33.8-33.8M512 478.2c18.6 0 33.8 15.1 33.8 33.8 0 18.6-15.1 33.7-33.8 33.7-18.7 0-33.8-15.1-33.8-33.7 0-18.7 15.1-33.8 33.8-33.8M364.5 478.2c18.7 0 33.8 15.1 33.8 33.8 0 18.6-15.1 33.7-33.8 33.7-18.6 0-33.8-15.1-33.8-33.7 0.1-18.7 15.2-33.8 33.8-33.8" fill="#27A27D" p-id="1039"></path><path d="M129.5 827V521.2c0-214.3 170.1-390 379.2-391.7 102.8-0.3 200.6 38.9 273.7 112s112.9 170.3 112 273.8C892.7 724.4 717 894.5 502.7 894.5H197c-37.2 0-67.5-30.3-67.5-67.5z m379.6-652.5C324.6 176 174.5 331.6 174.5 521.2V827c0 12.4 10.1 22.5 22.5 22.5h305.7c189.6 0 345.2-150.1 346.7-334.6 0.8-91.3-34.3-177.1-98.9-241.6-63.8-63.8-148.4-98.8-238.6-98.8h-2.8z" fill="#333333" p-id="1040"></path></svg>